<svg version="1.0" xmlns="http://www.w3.org/2000/svg" width="7000" height="1840" viewBox="0 0 5250 1380"><path d="M38 668.5V1127h167V626h375V501h125V335H580V210H38v458.5zM538 418v42H205v-84h333v42zm375 104.5V585H788v417h125v125h542V960H955v-83h500V585h-125V460H913v62.5zM1288 668v42H955v-84h333v42zm375-125v83h375v84h-375v125h-125v167h125v125h542V585h-125V460h-417v83zm375 375.5V960h-333v-83h333v41.5zm375-646V335h-125v667h125v125h417v-125h125V835h-167v125h-333V376h333v125h167V335h-125V210h-417v62.5zM3163 543v83h375v84h-375v125h-125v167h125v125h542V585h-125V460h-417v83zm375 375.5V960h-333v-83h333v41.5zm375-396V585h-125v167h125v125h375v83h-500v167h542v-125h125V835h-125V710h-375v-84h500V460h-542v62.5zm625 146V1127h167V752h125V626h208v501h167V585h-125V460h-292v125h-83V210h-167v458.5z" fill="#9f9"/></svg>